<?xml version="1.0" encoding="UTF-8" standalone="no"?>
<svg
   xmlns:dc="http://purl.org/dc/elements/1.1/"
   xmlns:cc="http://creativecommons.org/ns#"
   xmlns:rdf="http://www.w3.org/1999/02/22-rdf-syntax-ns#"
   xmlns:svg="http://www.w3.org/2000/svg"
   xmlns="http://www.w3.org/2000/svg"
   xmlns:sodipodi="http://sodipodi.sourceforge.net/DTD/sodipodi-0.dtd"
   xmlns:inkscape="http://www.inkscape.org/namespaces/inkscape"
   sodipodi:docname="arbilogo.svg"
   inkscape:version="1.0beta2 (2b71d25, 2019-12-03)"
   id="svg1586"
   version="1.1"
   viewBox="0 0 161.77875 30.120636"
   height="30.120636mm"
   width="161.77875mm">
  <defs
     id="defs1580" />
  <sodipodi:namedview
     inkscape:window-maximized="0"
     inkscape:window-y="37"
     inkscape:window-x="115"
     inkscape:window-height="1035"
     inkscape:window-width="1600"
     fit-margin-bottom="0"
     fit-margin-right="0"
     fit-margin-left="0"
     fit-margin-top="0"
     showgrid="false"
     inkscape:document-rotation="0"
     inkscape:current-layer="layer1"
     inkscape:document-units="mm"
     inkscape:cy="74.272825"
     inkscape:cx="327.7132"
     inkscape:zoom="1.6579883"
     inkscape:pageshadow="2"
     inkscape:pageopacity="0.0"
     borderopacity="1.0"
     bordercolor="#666666"
     pagecolor="#ffffff"
     id="base" />
  <metadata
     id="metadata1583">
    <rdf:RDF>
      <cc:Work
         rdf:about="">
        <dc:format>image/svg+xml</dc:format>
        <dc:type
           rdf:resource="http://purl.org/dc/dcmitype/StillImage" />
        <dc:title></dc:title>
      </cc:Work>
    </rdf:RDF>
  </metadata>
  <g
     transform="translate(-35.527292,-143.68968)"
     id="layer1"
     inkscape:groupmode="layer"
     inkscape:label="Layer 1">
    <g
       inkscape:export-ydpi="72.220001"
       inkscape:export-xdpi="72.220001"
       id="g690"
       style="font-style:normal;font-weight:normal;font-size:40px;line-height:125%;font-family:sans-serif;letter-spacing:0px;word-spacing:0px;fill:#ffffff;fill-opacity:1;stroke:none;stroke-width:1px;stroke-linecap:butt;stroke-linejoin:miter;stroke-opacity:1"
       transform="matrix(0.96150779,0,0,0.96150779,-8.1769932,-212.13558)"
       aria-label="Arbistar"
       inkscape:export-filename="/Users/mdev/Projects/HiJack/dev-stack/code/notification-api/public/media/logo.png">
      <path
         inkscape:connector-curvature="0"
         id="path674"
         style="font-style:normal;font-variant:normal;font-weight:normal;font-stretch:normal;font-family:'Co Headline Corp';-inkscape-font-specification:'Co Headline Corp';fill:#ffffff"
         d="m 45.453906,399.55 q 1,-2.68 2.24,-5.76 1.24,-3.12 2.6,-6.36 1.36,-3.28 2.8,-6.64 1.48,-3.36 2.92,-6.56 0.72,-1.6 1.64,-2.2 0.92,-0.64 2.32,-0.64 0.52,0 1,0.12 0.52,0.12 0.88,0.28 0.4,0.16 0.64,0.32 0.28,0.12 0.32,0.16 0.64,1.12 1.64,3.32 1.04,2.2 2.2,4.96 1.2,2.72 2.44,5.72 1.24,2.96 2.28,5.64 1.08,2.64 1.88,4.72 0.8,2.04 1.12,2.92 h -5.28 q -0.2,-0.48 -0.52,-1.36 -0.32,-0.88 -0.72,-1.88 -0.36,-1.04 -0.76,-2.08 -0.4,-1.04 -0.72,-1.84 h -13.4 q -0.88,2.2 -1.6,4.08 -0.68,1.84 -1.12,3.08 z m 19.32,-11.36 q -0.56,-1.48 -1.28,-3.24 -0.72,-1.8 -1.44,-3.48 -0.68,-1.72 -1.32,-3.12 -0.6,-1.4 -0.96,-2.12 -0.52,1.12 -1.16,2.56 -0.64,1.4 -1.32,3 -0.68,1.56 -1.36,3.2 -0.68,1.64 -1.28,3.2 z" />
      <path
         inkscape:connector-curvature="0"
         id="path676"
         style="font-style:normal;font-variant:normal;font-weight:normal;font-stretch:normal;font-family:'Co Headline Corp';-inkscape-font-specification:'Co Headline Corp';fill:#ffffff"
         d="m 76.870781,386.63 q 0,-3.68 2.24,-5.68 2.28,-2.04 6.28,-2.04 2.52,0 4.08,0.72 1.6,0.68 1.6,2.12 0,0.68 -0.4,1.32 -0.36,0.64 -0.6,0.8 -0.68,-0.32 -1.68,-0.6 -1,-0.28 -2.28,-0.28 -4.68,0 -4.68,4.96 v 11.6 h -4.56 z" />
      <path
         inkscape:connector-curvature="0"
         id="path678"
         transform="matrix(0.27517544,0,0,0.27517544,42.285871,268.23581)"
         d="m 193.2793,370.07031 c -2.81033,0 -4.99049,0.62887 -6.54102,1.88867 -1.55052,1.25981 -2.32617,3.19794 -2.32617,5.81446 v 59.45312 c 0,1.24636 0.0414,2.45337 0.10156,3.64258 h 16.32813 c -2.3e-4,-0.0513 -0.004,-0.10096 -0.004,-0.15234 0,-3.29487 0.53167,-6.39745 1.59766,-9.30469 1.16289,-2.90724 2.71418,-5.42662 4.65234,-7.55859 1.93817,-2.13198 4.26314,-3.77852 6.97656,-4.94141 2.81033,-1.2598 5.91292,-1.89063 9.30469,-1.89063 3.29487,0 6.2983,0.63083 9.01172,1.89063 2.81033,1.16289 5.18489,2.80943 7.12305,4.94141 2.03506,2.03506 3.58635,4.50682 4.65234,7.41406 1.06599,2.90723 1.59766,6.05744 1.59766,9.44922 0,0.0513 -0.004,0.10117 -0.004,0.15234 h 17.15234 c 1.7e-4,-0.0512 0.004,-0.1011 0.004,-0.15234 0,-5.62066 -0.96809,-10.75858 -2.90625,-15.41016 -1.84125,-4.74849 -4.45783,-8.81721 -7.84961,-12.20898 -3.29487,-3.48869 -7.22072,-6.15485 -11.77539,-7.9961 -4.45776,-1.93815 -9.34975,-2.90625 -14.67969,-2.90625 -5.52375,0 -10.41769,1.11487 -14.68164,3.34375 -4.26395,2.13198 -7.60855,4.74856 -10.03125,7.84961 v -41.71875 c -0.48454,-0.19381 -1.45263,-0.48541 -2.90625,-0.87304 -1.45362,-0.48454 -3.05253,-0.72657 -4.79687,-0.72657 z"
         style="font-style:normal;font-variant:normal;font-weight:normal;font-stretch:normal;font-family:'Co Headline Corp';-inkscape-font-specification:'Co Headline Corp';fill:#ffffff;stroke-width:3.63405px" />
      <path
         inkscape:connector-curvature="0"
         id="path680"
         style="font-style:normal;font-variant:normal;font-weight:normal;font-stretch:normal;font-family:'Co Headline Corp';-inkscape-font-specification:'Co Headline Corp';fill:#ffffff"
         d="m 118.71141,381.59 q 0,-1.12 0.64,-1.6 0.64,-0.52 1.8,-0.52 0.72,0 1.32,0.2 0.6,0.16 0.8,0.24 v 19.64 h -4.56 z m 2.28,-11.12 q 1.16,0 1.96,0.8 0.8,0.8 0.8,1.96 0,1.16 -0.8,1.96 -0.8,0.8 -1.96,0.8 -1.16,0 -1.96,-0.8 -0.8,-0.8 -0.8,-1.96 0,-1.16 0.8,-1.96 0.8,-0.8 1.96,-0.8 z" />
      <path
         inkscape:connector-curvature="0"
         id="path682"
         style="font-style:normal;font-variant:normal;font-weight:normal;font-stretch:normal;font-family:'Co Headline Corp';-inkscape-font-specification:'Co Headline Corp';fill:#ffffff"
         d="m 128.64078,394.55 q 0.28,0.2 1,0.52 0.72,0.32 1.76,0.68 1.08,0.32 2.44,0.56 1.36,0.24 2.96,0.24 2.08,0 3.4,-0.52 1.32,-0.56 1.32,-1.88 0,-1.12 -0.84,-1.68 -0.84,-0.6 -3,-0.84 l -3.12,-0.36 q -1.6,-0.16 -2.96,-0.56 -1.32,-0.44 -2.28,-1.16 -0.96,-0.72 -1.52,-1.76 -0.52,-1.08 -0.52,-2.56 0,-1.28 0.48,-2.4 0.52,-1.16 1.6,-2.04 1.08,-0.88 2.8,-1.36 1.76,-0.52 4.24,-0.52 4.16,0 6.44,0.92 2.32,0.92 2.32,2.4 0,0.48 -0.2,0.84 -0.16,0.36 -0.4,0.64 -0.2,0.28 -0.44,0.48 -0.24,0.16 -0.36,0.2 -0.16,-0.16 -0.72,-0.48 -0.52,-0.36 -1.44,-0.68 -0.92,-0.36 -2.2,-0.6 -1.28,-0.28 -2.96,-0.28 -4.64,0 -4.64,2.44 0,1.04 0.88,1.6 0.88,0.52 2.52,0.72 l 4.08,0.52 q 3.32,0.44 5.16,1.84 1.84,1.36 1.84,4.04 0,3 -2.4,4.8 -2.36,1.8 -6.84,1.8 -2.16,0 -3.92,-0.32 -1.76,-0.32 -3.08,-0.72 -1.28,-0.44 -2.08,-0.84 -0.8,-0.4 -1.04,-0.6 z" />
      <path
         inkscape:connector-curvature="0"
         id="path684"
         style="font-style:normal;font-variant:normal;font-weight:normal;font-stretch:normal;font-family:'Co Headline Corp';-inkscape-font-specification:'Co Headline Corp';fill:#ffffff"
         d="m 150.19391,375.91 q 0,-1.12 0.64,-1.6 0.64,-0.52 1.76,-0.52 0.72,0 1.32,0.2 0.64,0.16 0.84,0.24 v 5.24 h 5.8 q 1.32,0 1.84,0.56 0.56,0.52 0.56,1.56 0,0.68 -0.2,1.28 -0.2,0.56 -0.32,0.8 h -7.68 v 8.92 q 0,1.04 0.28,1.72 0.28,0.64 0.76,1.04 0.52,0.4 1.16,0.56 0.68,0.16 1.4,0.16 1.16,0 2.16,-0.36 1,-0.36 1.44,-0.68 l 1.84,3.04 q -0.32,0.24 -0.92,0.6 -0.56,0.36 -1.4,0.68 -0.84,0.32 -1.88,0.52 -1.04,0.24 -2.28,0.24 -3.52,0 -5.32,-1.8 -1.8,-1.84 -1.8,-4.8 z" />
      <path
         inkscape:connector-curvature="0"
         id="path686"
         style="font-style:normal;font-variant:normal;font-weight:normal;font-stretch:normal;font-family:'Co Headline Corp';-inkscape-font-specification:'Co Headline Corp';fill:#ffffff"
         d="m 184.24766,399.47 q -0.4,0.08 -1.28,0.16 -0.84,0.12 -2,0.2 -1.16,0.12 -2.6,0.2 -1.44,0.08 -3,0.08 -3.12,0 -5.12,-0.56 -1.96,-0.52 -3.12,-1.4 -1.12,-0.92 -1.56,-2.08 -0.4,-1.2 -0.4,-2.44 0,-1.64 0.48,-2.88 0.52,-1.24 1.64,-2.08 1.16,-0.84 3,-1.24 1.84,-0.44 4.48,-0.44 1.52,0 2.88,0.12 1.36,0.08 2.04,0.16 0,-1.4 -0.48,-2.32 -0.44,-0.92 -1.24,-1.44 -0.8,-0.52 -1.92,-0.72 -1.12,-0.2 -2.48,-0.2 -2.28,0 -3.68,0.52 -1.36,0.52 -1.8,0.88 -0.24,-0.2 -0.68,-0.76 -0.4,-0.56 -0.4,-1.36 0,-0.56 0.28,-1.08 0.32,-0.56 1.08,-0.96 0.76,-0.44 2.04,-0.68 1.28,-0.24 3.24,-0.24 2.36,0 4.28,0.48 1.96,0.44 3.36,1.44 1.4,1 2.16,2.64 0.8,1.64 0.8,3.96 z m -4.52,-8.88 q -0.4,-0.08 -1.52,-0.24 -1.08,-0.16 -3.28,-0.16 -2.72,0 -3.96,0.84 -1.24,0.8 -1.24,2.56 0,0.72 0.24,1.32 0.28,0.6 0.92,1.04 0.64,0.4 1.72,0.64 1.12,0.2 2.76,0.2 1.84,0 2.92,-0.12 1.08,-0.16 1.44,-0.24 z" />
      <path
         inkscape:connector-curvature="0"
         id="path688"
         style="font-style:normal;font-variant:normal;font-weight:normal;font-stretch:normal;font-family:'Co Headline Corp';-inkscape-font-specification:'Co Headline Corp';fill:#ffffff"
         d="m 188.90203,386.63 q 0,-3.68 2.24,-5.68 2.28,-2.04 6.28,-2.04 2.52,0 4.08,0.72 1.6,0.68 1.6,2.12 0,0.68 -0.4,1.32 -0.36,0.64 -0.6,0.8 -0.68,-0.32 -1.68,-0.6 -1,-0.28 -2.28,-0.28 -4.68,0 -4.68,4.96 v 11.6 h -4.56 z" />
    </g>
    <g
       inkscape:export-ydpi="72.220001"
       inkscape:export-xdpi="72.220001"
       id="g718"
       transform="matrix(0.19862014,0,0,0.19862014,75.606454,145.815)"
       style="fill:#41f2b9;fill-opacity:1"
       inkscape:export-filename="/Users/mdev/Projects/HiJack/dev-stack/code/notification-api/public/media/logo.png">
      <path
         sodipodi:nodetypes="ccccccccccsssssssssscccccccccccccccccsssssccccccccccccccccccccccccccsssssccccccccccccccccccsscsccccccsscccsccsccccc"
         inkscape:connector-curvature="0"
         id="path692"
         d="M 77.037005,110.89663 C 71.824069,110.26511 66.72788,108.07016 62.735288,104.73686 56.832327,99.808633 53.361434,92.874292 52.884073,85.05558 l -0.08098,-1.3264 h 27.429051 27.429046 l -8.9e-4,0.972693 c -0.49419,8.665697 -4.8478,16.288057 -11.112315,21.033037 -5.492317,4.08752 -12.680498,5.98919 -19.510904,5.16172 z M 72.408426,96.226816 c 0,-2.633146 -0.0068,-2.711748 -0.235806,-2.711748 -0.22897,0 -0.235806,0.07861 -0.235806,2.711748 0,2.633152 0.0068,2.711754 0.235806,2.711754 0.228971,0 0.235806,-0.07861 0.235806,-2.711754 z m 2.593848,0 c 0,-2.633146 -0.0068,-2.711748 -0.235806,-2.711748 -0.228971,0 -0.235801,0.07861 -0.235801,2.711748 0,2.633152 0.0068,2.711754 0.235801,2.711754 0.22897,0 0.235806,-0.07861 0.235806,-2.711754 z m 1.296925,-0.0065 v -2.71821 l -0.560035,0.03592 -0.560039,0.03592 -0.03168,2.682276 -0.03168,2.682276 h 0.591723 0.591728 z m 1.296922,-0.0018 v -2.719931 l -0.265278,0.0377 c -0.26515,0.03765 -0.265297,0.03899 -0.296967,2.719952 l -0.03168,2.682276 h 0.296972 0.296965 z m 0.825319,0.0082 c 0,-2.633147 -0.0068,-2.711749 -0.235806,-2.711749 -0.22897,0 -0.235806,0.07861 -0.235806,2.711749 0,2.633151 0.0068,2.711753 0.235806,2.711753 0.228971,0 0.235806,-0.07861 0.235806,-2.711753 z m 2.240142,0 v -2.711759 h -0.530563 -0.530558 v 2.711749 2.711753 h 0.530558 0.530563 z m 0.825314,-0.0082 v -2.719947 l -0.265279,0.03765 c -0.26515,0.03765 -0.265297,0.03899 -0.296967,2.719953 l -0.03168,2.682274 h 0.296971 0.296967 z m 1.414826,0.0082 v -2.711749 h -0.530557 -0.530562 v 2.711749 2.711753 h 0.530562 0.530557 z m 1.06112,0 c 0,-2.633147 -0.0068,-2.711749 -0.235801,-2.711749 -0.22897,0 -0.235806,0.07861 -0.235806,2.711749 0,2.633151 0.0068,2.711753 0.235806,2.711753 0.228966,0 0.235801,-0.07861 0.235801,-2.711753 z m 2.829655,0 v -2.711759 h -0.530558 -0.530563 v 2.711749 2.711753 h 0.530563 0.530558 z m 0.798055,0.02945 c -0.03168,-2.680961 -0.03181,-2.682293 -0.29697,-2.719953 l -0.265279,-0.0377 v 2.719953 2.719952 h 0.296966 0.296971 z M 52.754172,79.514177 c 0.331987,-7.511537 4.152738,-14.967914 10.119519,-19.748751 3.931365,-3.149974 8.233433,-5.033066 13.307603,-5.824973 1.890802,-0.29509 6.008011,-0.295296 7.895248,-3.57e-4 5.851345,0.914344 10.96444,3.447477 15.138635,7.499996 4.995363,4.84975 7.911783,11.278437 8.287633,18.268471 l 0.0767,1.426805 H 80.131023 52.682517 l 0.07165,-1.621155 z M 71.01801,77.600359 c 2.539821,-0.784469 3.949488,-3.486833 3.157114,-6.052245 -0.743388,-2.406806 -3.319496,-3.844167 -5.765734,-3.217036 -0.915605,0.234728 -1.421221,0.5237 -2.166802,1.238363 -1.350333,1.294342 -1.813812,3.090116 -1.260172,4.882597 0.775054,2.509328 3.500915,3.931204 6.035594,3.148321 z m 22.190092,-0.215877 c 1.006287,-0.470904 1.859822,-1.326742 2.345341,-2.351683 0.349006,-0.736752 0.376478,-0.885085 0.376478,-2.032721 0,-1.102379 -0.03529,-1.313338 -0.322344,-1.926036 -0.449233,-0.958918 -0.968834,-1.574357 -1.76201,-2.087015 -2.959332,-1.912703 -6.777409,-0.229005 -7.429259,3.27616 -0.412095,2.215926 1.069837,4.611222 3.313008,5.354944 1.016519,0.337022 2.467539,0.239566 3.478786,-0.233649 z"
         style="fill:#41f2b9;fill-opacity:1;stroke-width:0.117902" />
      <path
         sodipodi:nodetypes="ccccccccccccccccccccccc"
         inkscape:connector-curvature="0"
         id="path694"
         d="m 35.312051,122.8266 c 0.0013,0.0289 0.0024,0.0579 0.0031,0.0868 -0.0024,1.36511 -0.510529,2.68091 -1.426271,3.69331 1.815756,1.27245 2.897566,3.34987 2.899048,5.5671 -0.0027,1.61668 -0.580332,3.16777 -1.611271,4.38527 -0.353766,0.43717 -0.621075,0.93438 -0.628901,1.40405 -1.1e-5,1.06336 0.897895,1.9254 2.005563,1.92546 0.712311,-0.0399 1.16123,-0.26452 1.641242,-0.75913 1.641806,-1.93281 2.557828,-4.39477 2.562117,-6.95565 -0.0055,-3.86716 -2.083528,-7.43464 -5.444628,-9.34723 z m -11.031884,0.22428 c -3.148099,1.96496 -5.063138,5.41195 -5.068425,9.12295 0.0038,3.1745 1.405333,6.15169 3.77393,8.17573 l 0.163814,0.12868 c 0.367762,0.3037 0.836775,0.47073 1.321883,0.47077 1.119615,1e-5 2.02725,-0.8713 2.027266,-1.94613 -7.94e-4,-0.41103 -0.13793,-0.81315 -0.38519,-1.1438 -0.07914,-0.112 -0.17022,-0.21168 -0.265437,-0.28871 -1.665921,-1.27518 -2.66582,-3.26394 -2.667537,-5.39657 0.0017,-2.11731 0.989151,-4.11312 2.671154,-5.39915 -0.975755,-0.99797 -1.537255,-2.32851 -1.57148,-3.72381 z"
         style="opacity:1;fill:#41f2b9;fill-opacity:1;fill-rule:nonzero;stroke:none;stroke-width:0.77646;stroke-linejoin:round;stroke-miterlimit:4;stroke-dasharray:none;stroke-dashoffset:0;stroke-opacity:1" />
      <circle
         r="4.3030396"
         cy="122.53983"
         cx="30.214819"
         id="circle696"
         style="opacity:1;fill:#41f2b9;fill-opacity:1;fill-rule:nonzero;stroke:none;stroke-width:0.879005;stroke-linejoin:round;stroke-miterlimit:4;stroke-dasharray:none;stroke-dashoffset:0;stroke-opacity:1" />
      <circle
         style="opacity:1;fill:#41f2b9;fill-opacity:1;fill-rule:nonzero;stroke:none;stroke-width:0.802569;stroke-linejoin:round;stroke-miterlimit:4;stroke-dasharray:none;stroke-dashoffset:0;stroke-opacity:1"
         id="circle698"
         cx="29.092287"
         cy="100.36983"
         r="3.9288621" />
      <circle
         style="opacity:1;fill:#41f2b9;fill-opacity:1;fill-rule:nonzero;stroke:none;stroke-width:0.879005;stroke-linejoin:round;stroke-miterlimit:4;stroke-dasharray:none;stroke-dashoffset:0;stroke-opacity:1"
         id="circle700"
         cx="130.09503"
         cy="122.73827"
         r="4.3030396" />
      <circle
         r="3.9288621"
         cy="100.50212"
         cx="130.95686"
         id="circle702"
         style="opacity:1;fill:#41f2b9;fill-opacity:1;fill-rule:nonzero;stroke:none;stroke-width:0.802569;stroke-linejoin:round;stroke-miterlimit:4;stroke-dasharray:none;stroke-dashoffset:0;stroke-opacity:1" />
      <path
         inkscape:transform-center-y="8.1954413"
         inkscape:transform-center-x="0.45261582"
         style="opacity:1;fill:#41f2b9;fill-opacity:1;fill-rule:nonzero;stroke:none;stroke-width:0.77646;stroke-linejoin:round;stroke-miterlimit:4;stroke-dasharray:none;stroke-dashoffset:0;stroke-opacity:1"
         d="m 124.4307,122.37474 c -0.003,0.0288 -0.004,0.0579 -0.007,0.0865 -0.0495,1.36422 0.40907,2.69827 1.28598,3.74448 -1.86246,1.20306 -3.02184,3.2382 -3.10694,5.45381 -0.058,1.61564 0.46045,3.1874 1.44474,4.44291 0.33703,0.4502 0.5854,0.95715 0.57551,1.42677 -0.0401,1.0626 -0.96987,1.89017 -2.07676,1.84845 -0.7103,-0.0667 -1.15042,-0.30813 -1.61143,-0.82048 -1.56777,-1.99335 -2.39027,-4.4881 -2.29798,-7.04732 0.15082,-3.86423 2.36242,-7.35078 5.79326,-9.13525 z m 11.01558,0.64016 c 3.07175,2.08229 4.85543,5.59905 4.72076,9.30761 -0.12371,3.17209 -1.63631,6.09432 -4.07956,8.02759 l -0.16856,0.12241 c -0.37895,0.28961 -0.85393,0.43884 -1.33869,0.42059 -1.11881,-0.0422 -1.99296,-0.94714 -1.95243,-2.0212 0.0163,-0.41071 0.16847,-0.80738 0.42806,-1.12848 0.0832,-0.10893 0.17808,-0.20509 0.27612,-0.27849 1.71283,-1.21143 2.78702,-3.16107 2.86917,-5.29212 0.0778,-2.11587 -0.83333,-4.1475 -2.46564,-5.49605 1.01269,-0.96045 1.62398,-2.26887 1.7108,-3.66189 z"
         id="path704"
         inkscape:connector-curvature="0"
         sodipodi:nodetypes="ccccccccccccccccccccccc" />
      <path
         style="fill:#41f2b9;fill-opacity:1;stroke-width:0.117902"
         d="m 53.131407,98.499764 c -2.521373,-1.020355 -3.897743,-4.145474 -2.87392,-6.525409 0.277506,-0.645085 1.177929,-1.542116 1.747116,-1.740535 l 0.347228,-0.121043 0.129469,0.6695 c 0.381674,1.97369 1.338653,4.645044 2.367222,6.607964 0.318311,0.607463 0.549813,1.151286 0.514453,1.208499 -0.109614,0.177362 -1.725844,0.105684 -2.231568,-0.09897 z"
         id="path706"
         inkscape:connector-curvature="0"
         sodipodi:nodetypes="ccccssccc" />
      <path
         style="fill:#41f2b9;fill-opacity:1;stroke-width:0.117902"
         d="m 105.23207,97.751314 c 0.91897,-1.869657 1.54493,-3.619515 1.96893,-5.504086 0.30449,-1.353364 0.29406,-1.3466 1.1977,-0.77636 1.67213,1.055202 1.99756,3.877567 0.68325,5.925728 -0.86266,1.344344 -2.1779,2.155313 -3.60194,2.220944 -1.75829,0.238788 -0.58825,-1.17126 -0.24794,-1.866226 z"
         id="path708"
         inkscape:connector-curvature="0"
         sodipodi:nodetypes="cccccc" />
      <path
         id="path710"
         transform="scale(0.26458333)"
         d="M 183.01367,356.56055 125.77539,368 a 19.495688,19.495688 0 0 1 3.67578,11.34961 19.495688,19.495688 0 0 1 -0.0176,0.35742 l 57.6875,-11.5293 c -2.10977,-3.60007 -3.5278,-7.57408 -4.10742,-11.61718 z"
         style="opacity:1;fill:#41f2b9;fill-opacity:1;fill-rule:nonzero;stroke:none;stroke-width:2.6;stroke-linejoin:round;stroke-miterlimit:4;stroke-dasharray:none;stroke-dashoffset:0;stroke-opacity:1"
         inkscape:connector-curvature="0" />
      <path
         id="path712"
         transform="scale(0.26458333)"
         d="m 421.54492,356.41016 c -0.0706,3.97322 -0.91576,8.07049 -2.57226,11.92578 l 56.54687,11.30078 a 19.445437,19.445437 0 0 1 4.04492,-11.63086 z"
         style="opacity:1;fill:#41f2b9;fill-opacity:1;fill-rule:nonzero;stroke:none;stroke-width:2.6;stroke-linejoin:round;stroke-miterlimit:4;stroke-dasharray:none;stroke-dashoffset:0;stroke-opacity:1"
         inkscape:connector-curvature="0" />
      <path
         id="path714"
         transform="scale(0.26458333)"
         d="m 501.87109,398.01758 a 19.445437,19.445437 0 0 1 -6.91601,1.2793 19.445437,19.445437 0 0 1 -6.12891,-1.00977 l -1.30859,44.28711 a 21.743535,21.743535 0 0 1 4.17969,-0.42578 21.743535,21.743535 0 0 1 8.81445,1.88281 z"
         style="opacity:1;fill:#41f2b9;fill-opacity:1;fill-rule:nonzero;stroke:none;stroke-width:2.77798;stroke-linejoin:round;stroke-miterlimit:4;stroke-dasharray:none;stroke-dashoffset:0;stroke-opacity:1"
         inkscape:connector-curvature="0" />
      <path
         id="path716"
         transform="scale(0.26458333)"
         d="m 117.125,397.47461 a 19.495688,19.495688 0 0 1 -7.16992,1.37109 19.495688,19.495688 0 0 1 -5.85547,-0.90429 l 1.36133,46.09179 a 21.036427,21.036427 0 0 1 8.73633,-1.92773 21.036427,21.036427 0 0 1 4.25781,0.43945 z"
         style="opacity:1;fill:#41f2b9;fill-opacity:1;fill-rule:nonzero;stroke:none;stroke-width:2.77798;stroke-linejoin:round;stroke-miterlimit:4;stroke-dasharray:none;stroke-dashoffset:0;stroke-opacity:1"
         inkscape:connector-curvature="0" />
    </g>
    <g
       inkscape:export-ydpi="72.220001"
       inkscape:export-xdpi="72.220001"
       id="g726"
       style="font-style:normal;font-weight:normal;font-size:40px;line-height:125%;font-family:sans-serif;letter-spacing:0px;word-spacing:0px;fill:#41f2b9;fill-opacity:1;stroke:none;stroke-width:1px;stroke-linecap:butt;stroke-linejoin:miter;stroke-opacity:1"
       transform="matrix(0.47685764,0,0,0.38657252,158.66172,17.976695)"
       aria-label="2.0"
       inkscape:export-filename="/Users/mdev/Projects/HiJack/dev-stack/code/notification-api/public/media/logo.png">
      <path
         id="path720"
         style="font-style:normal;font-variant:normal;font-weight:normal;font-stretch:normal;font-family:'DIN Condensed';-inkscape-font-specification:'DIN Condensed, ';fill:#41f2b9;fill-opacity:1"
         d="m 46.613906,398.47852 v -3.84 l 7.36,-13.88 q 0.56,-1.04 0.64,-1.8 0.08,-0.8 0.08,-1.96 0,-0.52 -0.04,-1.08 0,-0.6 -0.2,-1.04 -0.2,-0.44 -0.6,-0.72 -0.4,-0.32 -1.16,-0.32 -0.92,0 -1.48,0.52 -0.52,0.52 -0.52,1.52 v 2.32 h -4.08 v -2.24 q 0,-1.28 0.48,-2.4 0.48,-1.12 1.32,-1.96 0.8,-0.84 1.92,-1.32 1.12,-0.52 2.4,-0.52 1.6,0 2.72,0.6 1.16,0.56 1.92,1.56 0.72,1 1.04,2.28 0.36,1.28 0.36,2.72 0,1.04 -0.04,1.76 -0.04,0.68 -0.16,1.32 -0.12,0.64 -0.4,1.28 -0.28,0.64 -0.76,1.56 l -6,11.56 h 7.36 v 4.08 z"
         inkscape:connector-curvature="0" />
      <path
         id="path722"
         style="font-style:normal;font-variant:normal;font-weight:normal;font-stretch:normal;font-family:'DIN Condensed';-inkscape-font-specification:'DIN Condensed, ';fill:#41f2b9;fill-opacity:1"
         d="m 61.777656,398.47852 v -4.08 h 4.08 v 4.08 z"
         inkscape:connector-curvature="0" />
      <path
         id="path724"
         style="font-style:normal;font-variant:normal;font-weight:normal;font-stretch:normal;font-family:'DIN Condensed';-inkscape-font-specification:'DIN Condensed, ';fill:#41f2b9;fill-opacity:1"
         d="m 68.879531,375.87852 q 0,-1.44 0.48,-2.56 0.52,-1.12 1.36,-1.92 0.84,-0.8 1.92,-1.2 1.12,-0.44 2.32,-0.44 1.2,0 2.28,0.44 1.12,0.4 1.96,1.2 0.84,0.8 1.32,1.92 0.52,1.12 0.52,2.56 v 16.72 q 0,1.44 -0.52,2.56 -0.48,1.12 -1.32,1.92 -0.84,0.8 -1.96,1.24 -1.08,0.4 -2.28,0.4 -1.2,0 -2.32,-0.4 -1.08,-0.44 -1.92,-1.24 -0.84,-0.8 -1.36,-1.92 -0.48,-1.12 -0.48,-2.56 z m 4.08,16.72 q 0,0.88 0.56,1.48 0.56,0.56 1.44,0.56 0.88,0 1.44,-0.56 0.56,-0.6 0.56,-1.48 v -16.72 q 0,-0.88 -0.56,-1.44 -0.56,-0.6 -1.44,-0.6 -0.88,0 -1.44,0.6 -0.56,0.56 -0.56,1.44 z"
         inkscape:connector-curvature="0" />
    </g>
  </g>
</svg>
